<svg xmlns="http://www.w3.org/2000/svg" version="1.1" xmlns:xlink="http://www.w3.org/1999/xlink" xmlns:svgjs="http://svgjs.dev/svgjs" width="1500" height="935" viewBox="0 0 1500 935"><g transform="matrix(1,0,0,1,-0.9090909090908781,0.3785425101214628)"><svg viewBox="0 0 396 247" data-background-color="#ffffff" preserveAspectRatio="xMidYMid meet" height="935" width="1500" xmlns="http://www.w3.org/2000/svg" xmlns:xlink="http://www.w3.org/1999/xlink"><g id="tight-bounds" transform="matrix(1,0,0,1,0.2400000000000091,-0.09999999999999432)"><svg viewBox="0 0 395.52 247.2" height="247.2" width="395.52"><g><svg></svg></g><g><svg viewBox="0 0 395.52 247.2" height="247.2" width="395.52"><g transform="matrix(1,0,0,1,75.54432,63.05041855235419)"><svg viewBox="0 0 244.43135999999998 121.09916289529161" height="121.09916289529161" width="244.43135999999998"><g><svg viewBox="0 0 244.43135999999998 121.09916289529161" height="121.09916289529161" width="244.43135999999998"><g><svg viewBox="0 0 244.43135999999998 121.09916289529161" height="121.09916289529161" width="244.43135999999998"><g><svg viewBox="0 0 244.43135999999998 121.09916289529161" height="121.09916289529161" width="244.43135999999998"><g id="textblocktransform"><svg viewBox="0 0 244.43135999999998 121.09916289529161" height="121.09916289529161" width="244.43135999999998" id="textblock"><g><svg viewBox="0 0 244.43135999999998 121.09916289529161" height="121.09916289529161" width="244.43135999999998"><g transform="matrix(1,0,0,1,0,0)"><svg width="244.43135999999998" viewBox="4.25 -35 71.15 35.25" height="121.09916289529161" data-palette-color="#ff0033"><path d="M27.2-35L27.2-31.5 8.25-31.5 8.25-19.55 22.5-19.55 22.5-16.05 8.25-16.05 8.25-3.5 27.2-3.5 27.2 0 4.25 0 4.25-35 27.2-35ZM36.35 0.25L36.35 0.25Q35.2 0.25 34.42-0.55 33.65-1.35 33.65-2.5L33.65-2.5Q33.65-3.65 34.42-4.45 35.2-5.25 36.35-5.25L36.35-5.25Q37.45-5.25 38.25-4.45 39.05-3.65 39.05-2.5L39.05-2.5Q39.05-1.35 38.25-0.55 37.45 0.25 36.35 0.25ZM71.35 0L59.9-31.5 58.25-31.5 46.7 0 42.65 0 55.45-35 62.65-35 75.4 0 71.35 0ZM48.9-9.2L48.9-12.7 69.3-12.7 69.3-9.2 48.9-9.2Z" opacity="1" transform="matrix(1,0,0,1,0,0)" fill="#ff0033" class="wordmark-text-0" data-fill-palette-color="primary" id="text-0"></path></svg></g></svg></g></svg></g></svg></g></svg></g></svg></g></svg></g><g><path d="M0 123.6c0-68.262 55.338-123.6 123.6-123.6 40.13 0 75.792 19.124 98.372 48.756h-6.96c-21.666-26.431-54.57-43.296-91.412-43.296-65.247 0-118.14 52.893-118.14 118.14 0 65.247 52.893 118.14 118.14 118.14 36.843 0 69.746-16.865 91.412-43.296h6.96c-22.579 29.632-58.242 48.756-98.372 48.756-68.262 0-123.6-55.338-123.6-123.6z" fill="#ff0033" stroke="transparent" data-fill-palette-color="tertiary"></path></g></svg></g><defs></defs></svg><rect width="395.52" height="247.2" fill="none" stroke="none" visibility="hidden"></rect></g></svg></g></svg>